<svg xmlns="http://www.w3.org/2000/svg" viewBox="0 0 72 72" width="72" height="72">
	<style>
		tspan { white-space:pre }
		.shp0 { fill: #000000 } 
	</style>
	<g id="Layer">
		<g id="Layer">
			<path id="Layer" class="shp0" d="M29.99 35.68C29.4 35.68 28.93 36.15 28.93 36.74L28.93 38.93C28.93 39.51 29.4 39.98 29.99 39.98C30.57 39.98 31.04 39.51 31.04 38.93L31.04 36.74C31.04 36.15 30.57 35.68 29.99 35.68L29.99 35.68Z" />
			<path id="Layer" class="shp0" d="M42 35.68C41.42 35.68 40.95 36.15 40.95 36.74L40.95 38.93C40.95 39.51 41.42 39.98 42 39.98C42.58 39.98 43.05 39.51 43.05 38.93L43.05 36.74C43.05 36.15 42.58 35.68 42 35.68L42 35.68Z" />
			<path id="Layer" fill-rule="evenodd" class="shp0" d="M71.82 15.42C72.03 15.95 72.04 16.55 71.85 17.23C71.51 18.49 70.66 19.65 69.26 20.78C68.86 21.1 68.46 21.39 68.06 21.68C67.43 22.13 66.84 22.57 66.32 23.07C65.46 23.89 64.71 24.82 63.92 25.81C62.67 27.36 61.4 28.95 59.66 30.09C60.51 37.47 57.21 43.27 53.44 49.02C51.86 51.41 50.33 54.07 50.19 57.02C50.18 57.2 50.18 57.39 50.17 57.57C51.13 58.77 51.7 60.29 51.7 61.93C51.7 65.82 48.52 68.98 44.62 68.98L27.36 68.98C23.46 68.98 20.29 65.82 20.29 61.93C20.29 60.29 20.86 58.77 21.81 57.57C21.81 57.39 21.8 57.2 21.79 57.02C21.66 54.1 20.1 51.36 18.59 49.06C14.81 43.3 11.51 37.51 12.37 30.12C10.61 28.97 9.33 27.37 8.07 25.81C7.28 24.82 6.53 23.89 5.67 23.07C3.66 21.14 0.95 20.19 0.13 17.23C-0.05 16.55 -0.04 15.95 0.16 15.42C0.41 14.8 0.9 14.39 1.3 14.1C3.25 12.7 5.87 11.93 8.89 11.89C8.89 11.89 8.9 11.89 8.9 11.89C9.48 11.89 9.95 12.35 9.96 12.93C9.97 13.51 9.5 13.99 8.92 14C6.34 14.04 4.13 14.67 2.53 15.81C2.24 16.03 2.15 16.14 2.12 16.2C2.12 16.22 2.08 16.35 2.17 16.67C2.39 17.49 3.01 18.29 4.05 19.14C5.07 19.95 6.18 20.63 7.13 21.54C8.09 22.47 8.91 23.5 9.71 24.49C10.69 25.7 11.63 26.88 12.76 27.79C13.72 23.54 15.8 19.68 18.7 16.78C18.54 16.66 18.37 16.55 18.2 16.44C16.89 15.61 15.26 14.94 13.47 14.51C12.9 14.37 12.55 13.81 12.69 13.24C12.82 12.67 13.39 12.32 13.96 12.46C15.98 12.94 17.83 13.7 19.33 14.66C19.67 14.88 19.99 15.1 20.29 15.34C20.64 15.05 20.99 14.78 21.35 14.52L21.2 13.24C21.2 13.24 21.2 13.23 21.2 13.23C21.19 13.18 20.72 8.84 18.34 6.36C17.76 5.76 17.62 4.87 18 4.12C18.37 3.36 19.16 2.93 20 3.02C22.57 3.31 26.19 4.43 28.79 8.17C28.8 8.18 28.81 8.2 28.82 8.21L30.19 10.41C32.07 9.96 34.02 9.72 35.99 9.72C37.32 9.72 38.64 9.78 39.96 9.99C40.13 10.02 41.78 10.43 41.82 10.37C41.82 10.37 43.17 8.21 43.17 8.21C43.17 8.2 43.18 8.19 43.19 8.17C45.8 4.43 49.41 3.31 51.98 3.02C52.83 2.93 53.61 3.36 53.99 4.12C54.36 4.87 54.23 5.76 53.64 6.36C51.27 8.84 50.79 13.18 50.79 13.23C50.79 13.23 50.79 13.24 50.79 13.24L50.64 14.45C51.02 14.73 51.38 15.01 51.74 15.3C52.03 15.08 52.33 14.87 52.65 14.66C57.47 11.59 65.86 10.63 70.69 14.1C71.09 14.39 71.58 14.8 71.82 15.42ZM43.93 10.97C45.59 11.52 47.18 12.25 48.67 13.14L48.69 13C48.72 12.72 49.25 8.13 51.89 5.16C49.78 5.45 46.98 6.44 44.94 9.36L43.93 10.97ZM20.1 5.16C22.74 8.14 23.27 12.72 23.3 13L23.32 13.21C24.83 12.31 26.42 11.57 28.08 11.01L27.05 9.36C25 6.44 22.2 5.45 20.1 5.16ZM44.62 66.87C47.36 66.87 49.59 64.66 49.59 61.93C49.59 59.21 47.36 57 44.62 57C43.8 57 42.98 57.2 42.26 57.59C41.79 57.84 41.22 57.71 40.91 57.29C39.77 55.73 37.93 54.8 35.99 54.8C34.06 54.8 32.22 55.73 31.08 57.29C30.77 57.71 30.19 57.84 29.73 57.59C29.01 57.2 28.19 57 27.36 57C24.63 57 22.4 59.21 22.4 61.93C22.4 64.66 24.63 66.87 27.36 66.87L44.62 66.87ZM51.63 47.9C55.63 41.82 58.8 36.18 57.25 28.65C56.36 24.34 54.21 20.45 51.19 17.69C47.99 14.78 44.06 12.88 39.83 12.16C39.82 14.67 39.32 17.16 38.36 19.43C36.02 24.94 34.41 29.63 36.51 35.6C37.43 38.21 38.85 40.61 40.62 42.54C41.02 42.97 40.99 43.64 40.56 44.03C40.13 44.43 39.46 44.4 39.07 43.97C37.1 41.83 35.53 39.18 34.52 36.3C32.17 29.63 33.99 24.34 36.41 18.61C37.3 16.51 37.75 14.21 37.72 11.9C37.15 11.86 36.57 11.83 35.99 11.83C33.22 11.83 30.45 12.34 27.87 13.33C24.84 14.49 22.15 16.22 19.93 18.58C19.05 19.51 18.26 20.52 17.57 21.6C16.21 23.75 15.25 26.15 14.74 28.65C13.18 36.18 16.36 41.82 20.35 47.9C21.84 50.17 23.38 52.86 23.8 55.85C24.85 55.24 26.06 54.89 27.36 54.89C28.24 54.89 29.11 55.05 29.93 55.37C31.47 53.68 33.68 52.69 35.99 52.69C38.31 52.69 40.52 53.68 42.06 55.37C42.87 55.05 43.75 54.89 44.62 54.89C45.92 54.89 47.14 55.24 48.19 55.85C48.48 53.77 49.31 51.83 50.3 50.08C48 49.58 45.87 48.81 43.95 47.78C43.65 47.62 43.35 47.45 43.06 47.27C42.56 46.97 42.4 46.32 42.71 45.82C43.01 45.33 43.66 45.17 44.16 45.47C44.41 45.63 44.68 45.78 44.94 45.92C46.89 46.96 49.08 47.71 51.46 48.17C51.52 48.08 51.58 47.99 51.63 47.9ZM69.82 16.67C69.91 16.35 69.87 16.22 69.86 16.2C69.84 16.14 69.75 16.03 69.45 15.81C65.39 12.89 57.93 13.79 53.79 16.44C53.63 16.54 53.48 16.64 53.33 16.75C56.23 19.65 58.31 23.51 59.27 27.76C60.38 26.84 61.31 25.69 62.27 24.49C63.07 23.49 63.9 22.47 64.86 21.54C65.48 20.95 66.16 20.45 66.82 19.97C67.21 19.69 67.58 19.42 67.93 19.14C68.98 18.29 69.59 17.49 69.82 16.67Z" />
			<path id="Layer" class="shp0" d="M31.92 60.33C31.12 60.33 30.48 60.97 30.48 61.76C30.48 62.55 31.12 63.19 31.92 63.19C32.72 63.19 33.36 62.55 33.36 61.76C33.36 60.97 32.72 60.33 31.92 60.33Z" />
			<path id="Layer" class="shp0" d="M40.07 60.33C39.27 60.33 38.63 60.97 38.63 61.76C38.63 62.55 39.27 63.19 40.07 63.19C40.86 63.19 41.51 62.55 41.51 61.76C41.51 60.97 40.86 60.33 40.07 60.33L40.07 60.33Z" />
		</g>
	</g>
</svg>