<svg id="Capa_1" enable-background="new 0 0 511.907 511.907" height="512" viewBox="0 0 511.907 511.907" width="512" xmlns="http://www.w3.org/2000/svg"><g><g><path d="m213.239 253.741c-4.142 0-7.5 3.357-7.5 7.5v15.592c0 4.143 3.358 7.5 7.5 7.5s7.5-3.357 7.5-7.5v-15.592c0-4.142-3.358-7.5-7.5-7.5z"/><path d="m298.668 253.741c-4.142 0-7.5 3.357-7.5 7.5v15.592c0 4.143 3.358 7.5 7.5 7.5s7.5-3.357 7.5-7.5v-15.592c0-4.142-3.358-7.5-7.5-7.5z"/><path d="m510.744 109.68c-1.762-4.447-5.247-7.362-8.087-9.406-34.306-24.677-93.997-17.868-128.224 3.975-2.304 1.47-4.461 2.999-6.502 4.571-2.543-2.102-5.151-4.102-7.794-6.047l1.016-8.607c.004-.036.008-.072.012-.108.032-.311 3.43-31.222 20.291-48.797 4.154-4.33 5.125-10.602 2.473-15.977-2.667-5.403-8.266-8.469-14.27-7.798-18.279 2.028-43.96 10.028-62.499 36.617-.072.103-.141.207-.208.313 0 0-9.561 15.296-9.562 15.297-.264.422-12.001-2.438-13.264-2.64-9.373-1.5-18.714-1.918-28.174-1.918-14.038 0-27.87 1.658-41.248 4.86l-9.751-15.6c-.066-.106-.136-.211-.208-.313-18.539-26.589-44.219-34.589-62.498-36.617-6.006-.665-11.604 2.394-14.271 7.798-2.652 5.375-1.682 11.646 2.473 15.977 16.861 17.575 20.258 48.486 20.291 48.797.004.036.008.072.012.108l1.069 9.057c-2.548 1.878-5.048 3.831-7.502 5.851-2.139-1.663-4.417-3.274-6.847-4.825-10.654-6.799-23.863-12.21-38.199-15.647-4.026-.969-8.076 1.516-9.042 5.544s1.517 8.076 5.544 9.042c12.734 3.054 24.362 7.793 33.627 13.706 1.246.795 2.44 1.604 3.584 2.427-20.598 20.633-35.441 48.109-42.24 78.321-8.027-6.528-14.741-14.863-21.669-23.49-5.682-7.075-11.558-14.392-18.375-20.944-6.738-6.476-14.66-11.315-21.873-17.133-7.427-5.99-11.82-11.727-13.428-17.541-.631-2.282-.357-3.17-.296-3.325.169-.427.81-1.251 2.902-2.756 11.352-8.165 27.055-12.634 45.413-12.923 4.142-.065 7.446-3.476 7.381-7.617-.064-4.102-3.41-7.382-7.497-7.382-.04 0-.08 0-.121.001-21.432.336-40.083 5.781-53.934 15.744-2.839 2.043-6.324 4.958-8.086 9.405-1.474 3.72-1.547 8.044-.217 12.853 5.818 21.019 25.083 27.763 39.365 41.488 6.121 5.883 11.441 12.508 17.074 19.521 8.931 11.12 18.087 22.491 30.557 30.642-6.069 52.534 17.379 93.758 44.248 134.673 10.742 16.357 21.851 35.874 22.791 56.601.058 1.289.097 2.615.136 3.957-6.777 8.536-10.837 19.304-10.837 31.005 0 27.621 22.565 50.093 50.301 50.093h122.746c27.736 0 50.301-22.472 50.301-50.093 0-11.701-4.061-22.469-10.837-31.005.039-1.343.078-2.668.136-3.957.95-20.968 11.849-39.847 23.081-56.894 26.853-40.889 50.29-82.086 44.266-134.568 12.318-8.136 21.39-19.422 30.249-30.453 5.632-7.014 10.953-13.639 17.074-19.521 3.69-3.547 7.922-6.622 12.402-9.878 2.796-2.032 5.688-4.133 8.493-6.396 9.954-8.026 15.995-16.275 18.47-25.217 1.329-4.807 1.256-9.131-.218-12.851zm-191.174-43.149c14.538-20.749 34.439-27.746 49.39-29.842-18.745 21.155-22.494 53.752-22.708 55.764l-.119 1.009c-10.653-6.352-21.94-11.536-33.723-15.476zm-176.623-29.841c14.951 2.096 34.851 9.091 49.39 29.842l7.367 11.786c-11.811 3.968-23.164 9.193-33.876 15.592l-.172-1.457c-.214-1.999-3.96-34.603-22.709-55.763zm174.38 438.823h-122.747c-19.465 0-35.301-15.742-35.301-35.093 0-19.35 15.836-35.092 35.301-35.092 5.877 0 11.692 1.463 16.818 4.229 3.297 1.781 7.405.853 9.617-2.173 8.114-11.098 21.175-17.724 34.938-17.724s26.824 6.626 34.938 17.724c2.211 3.025 6.317 3.951 9.617 2.173 5.125-2.767 10.941-4.229 16.818-4.229 19.465 0 35.301 15.742 35.301 35.092.001 19.351-15.835 35.093-35.3 35.093zm49.852-134.89c-.415.632-.831 1.27-1.246 1.911-16.913-3.246-32.488-8.613-46.359-15.984-1.867-.992-3.743-2.063-5.575-3.184-3.534-2.163-8.15-1.049-10.311 2.486-2.161 3.533-1.048 8.15 2.486 10.311 2.089 1.277 4.229 2.499 6.361 3.633 13.682 7.27 28.82 12.747 45.121 16.342-6.996 12.449-12.919 26.216-14.99 41.037-7.447-4.344-16.103-6.847-25.339-6.847-6.25 0-12.458 1.167-18.247 3.405-10.965-12.038-26.674-19.072-43.126-19.072s-32.161 7.034-43.126 19.072c-5.79-2.238-11.997-3.405-18.247-3.405-9.235 0-17.889 2.502-25.335 6.845-2.977-21.283-13.907-40.393-24.517-56.55-28.381-43.217-50.976-83.349-39.944-136.916 3.651-17.73 10.471-34.801 20.188-50.082 4.886-7.683 10.494-14.906 16.745-21.527 15.809-16.747 34.953-29.051 56.434-37.288 18.408-7.059 38.092-10.655 57.803-10.655 4.119 0 8.217.164 12.289.471.19 16.441-2.984 32.813-9.3 47.724-17.258 40.735-30.185 78.317-13.486 125.786 7.195 20.448 18.385 39.302 32.36 54.523 2.802 3.052 7.546 3.253 10.597.452s3.254-7.546.453-10.597c-12.615-13.739-22.732-30.808-29.26-49.357-14.942-42.475-3.441-75.801 13.148-114.957 6.861-16.199 10.434-33.911 10.495-51.734 30.049 5.118 58.046 18.638 80.75 39.331 21.497 19.593 36.812 47.262 43.123 77.909 11.031 53.569-11.564 93.7-39.945 136.917zm129.325-222.091c-1.608 5.813-6.001 11.551-13.429 17.541-2.512 2.025-5.127 3.926-7.895 5.938-4.692 3.41-9.544 6.937-13.978 11.196-6.818 6.552-12.693 13.868-18.375 20.943-6.839 8.516-13.473 16.742-21.366 23.23-6.793-30.198-21.62-57.663-42.195-78.294 1.042-.741 2.11-1.476 3.236-2.194 29.467-18.805 82.463-25.254 111.394-4.442 2.093 1.506 2.734 2.33 2.903 2.757.062.155.336 1.043-.295 3.325z"/><path d="m226.991 428.987c-5.658 0-10.244 4.564-10.244 10.194s4.586 10.194 10.244 10.194 10.244-4.564 10.244-10.194-4.587-10.194-10.244-10.194z"/><path d="m284.916 428.987c-5.658 0-10.244 4.564-10.244 10.194s4.586 10.194 10.244 10.194 10.244-4.564 10.244-10.194-4.586-10.194-10.244-10.194z"/></g></g></svg>